<svg height="500" viewBox="0 0 399.99998 499.99997" width="400" xmlns="http://www.w3.org/2000/svg" xmlns:xlink="http://www.w3.org/1999/xlink"><marker id="a" orient="auto" overflow="visible" refX="0" refY="0"><path d="m5.77 0-8.65 5v-10z" fill="#f00" fill-rule="evenodd" stroke="#f00" stroke-width="1pt" transform="scale(.4)"/></marker><marker id="b" orient="auto" overflow="visible" refX="0" refY="0"><path d="m5.77 0-8.65 5v-10z" fill="#f00" fill-rule="evenodd" stroke="#f00" stroke-width="1pt" transform="scale(.4)"/></marker><marker id="c" orient="auto" overflow="visible" refX="0" refY="0"><path d="m5.77 0-8.65 5v-10z" fill="#f00" fill-rule="evenodd" stroke="#f00" stroke-width="1pt" transform="scale(.4)"/></marker><marker id="d" orient="auto" overflow="visible" refX="0" refY="0"><path d="m5.77 0-8.65 5v-10z" fill="#f00" fill-rule="evenodd" stroke="#f00" stroke-width="1pt" transform="scale(.4)"/></marker><marker id="e" orient="auto" overflow="visible" refX="0" refY="0"><path d="m5.77 0-8.65 5v-10z" fill="#f00" fill-rule="evenodd" stroke="#f00" stroke-width="1pt" transform="scale(.4)"/></marker><marker id="f" orient="auto" overflow="visible" refX="0" refY="0"><path d="m5.77 0-8.65 5v-10z" fill="#f00" fill-rule="evenodd" stroke="#f00" stroke-width="1pt" transform="scale(.4)"/></marker><marker id="g" orient="auto" overflow="visible" refX="0" refY="0"><path d="m5.77 0-8.65 5v-10z" fill="#f00" fill-rule="evenodd" stroke="#f00" stroke-width="1pt" transform="scale(.4)"/></marker><g transform="translate(0 -552.36217)"><g fill="none"><g stroke-linecap="round"><g stroke="#bcbcbc" stroke-width="1.5"><path d="m68.878799 834.21331 258.739571 13.5387" stroke-opacity=".968627"/><path d="m169.96775 806.53419-129.670648 160.96008"/><path d="m49.623761 894.68616 87.550249 145.31544"/><path d="m57.74698 1022.5516 207.59338-22.56446"/><path d="m184.10817 1034.5861 136.89128-121.54748"/><path d="m309.56677 965.98997-52.04877-149.82826"/></g><path d="m267.39751 844.60092 30.806 88.67854-81.02451 71.94264-94.75388 10.2993-51.695194-85.80334 73.752354-91.54875" stroke="#000" stroke-width="3"/></g><g stroke="#f00" stroke-width="1.684816"><path d="m205.93989 841.38511 1.27866-23.69272" marker-end="url(#g)"/><path d="m283.54238 891.07584 23.40364-9.65187" marker-end="url(#f)"/><path d="m107.60611 883.94369-17.602023-13.42802" marker-end="url(#e)"/><path d="m257.69125 969.25078 15.79516 16.17122" marker-end="url(#d)"/><path d="m169.80206 1010.3718 2.25646 21.8123" marker-end="url(#c)"/><path d="m96.577524 972.61975-19.17981 10.53009" marker-end="url(#b)"/></g><g stroke-linecap="round"><path d="m308.74346 846.76437-212.343948-11.11102" stroke="#5ac469" stroke-width="3.3"/><g stroke="#bcbcbc" stroke-width="1.5"><path d="m8.7026824 740.02824 246.1540376 80.85573" stroke-opacity=".968627"/><path d="m92.963263 802.36012-62.758648-196.93648"/><path d="m12.59647 676.68346 134.1375-103.86886"/><path d="m66.367478 560.38966 185.418872 96.0417"/><path d="m188.54133 594.82113 83.73094 162.79475"/><path d="m280.7426 704.11069-102.66447 120.90322"/></g><path d="m80.62869 763.65421 116.93642 38.41082 60.76381-71.55874-49.55947-96.35649-84.63255-43.83725-79.203245 61.33073z" stroke="#000" stroke-width="3"/></g><g stroke="#f00" stroke-width="1.684816"><path d="m139.09689 782.85962-7.36764 22.55433" marker-end="url(#g)"/><path d="m229.41036 764.5623 18.33568 17.45542" marker-end="url(#f)"/><path d="m62.781172 707.64874-21.264469 6.16158" marker-end="url(#e)"/><path d="m233.54918 682.32805 20.57075-9.37228" marker-end="url(#d)"/><path d="m166.45318 612.23118 9.98461-19.52377" marker-end="url(#c)"/><path d="m84.535278 620.97792-14.079867-16.7483" marker-end="url(#a)"/></g></g><text style="font-weight:600;font-size:19.999998;font-family:Lato;letter-spacing:0;word-spacing:0;text-anchor:middle;fill:#5ac469" x="324.56201" y="814.77429"><tspan x="324.56201" y="814.77429">Separating</tspan><tspan x="324.56201" y="834.77429">Plane</tspan></text></g></svg>
