<svg enable-background="new" height="50.999832" viewBox="0 0 240.15759 50.999832" width="240.15759" xmlns="http://www.w3.org/2000/svg" xmlns:xlink="http://www.w3.org/1999/xlink"><linearGradient id="a" gradientTransform="matrix(.86836616 0 0 -.86836616 19.116688 354.85379)" gradientUnits="userSpaceOnUse" x1="-50.169083" x2="266.50421" y1="214.34602" y2="111.7482"><stop offset="0" stop-color="#ff4e78"/><stop offset="1" stop-color="#f67b7b"/></linearGradient><g transform="translate(39.50845 -202.73825)"><path d="m-36.352685 214.76907 7.898437 13.27148c.249807.35818.249807.83323 0 1.19141l-7.898437 13.81445h69.406895l-.04164-28.22204zm212.441675-8.88051v28.27734h21.4043l-7.89844-13.81445c-.24981-.35818-.24981-.83323 0-1.19141l7.89649-13.27148zm-143.076606 8.93571.04183 28.22214c1.916785-1.92132 5.311962-4.63213 11.911452-4.63213v-.002l122.410154-.002c4.65321-.0933 8.2618-3.35204 8.71337-4.24438l-.0002-28.27734c-1.88269 1.61766-4.96029 4.27519-8.61161 4.24438v.006h-.16897c-.0115.00003-122.342784.002-122.342784.002-4.820702-.11635-9.145109.60314-11.953048 4.68343z" fill="#ff3252" stroke-linecap="round" stroke-linejoin="round" stroke-miterlimit="3.85" stroke-width="6.3"/><path d="m176.37136 202.73827c-3.74647 0-4.12033 4.24977-8.90455 4.24977-1.16134-.006-122.501906.002-122.501906.002l.07617.002c-2.589638-.0625-5.227607.0743-7.798829.92773-2.02404.67183-3.885155 2.01591-5.498046 3.75195l-68.09375-.0527c-2.444709-.002-3.959469 2.66103-2.708985 4.76172l7.304688 12.27539-7.333985 12.82617c-1.20168 2.10019.314696 4.71486 2.734375 4.71485h69.408203c.764871-.0379 1.489744-.35313 2.58917-1.44664 1.099427-1.09351 3.5841-3.18621 9.320987-3.18621 1.739929.00004 3.15041-.002 3.15041-.002l122.019048-.0205c1.86832-.0185 4.80158-1.38781 6.53257-4.22564h20.82722c2.41968.00002 3.93606-2.61466 2.73438-4.71485l-7.334-12.82595 7.30469-12.27539c1.25004-2.09994-.26319-4.76174-2.70703-4.76172z" fill="#293252" stroke-linecap="round" stroke-linejoin="round" stroke-miterlimit="3.85"/><path d="m-36.352483 214.76907 7.898437 13.27148c.249807.35818.249807.83323 0 1.19141l-7.898437 13.81445h67.294674v-28.27734zm212.441673-8.88051v28.27734h21.4043l-7.89844-13.81445c-.24981-.35818-.24981-.83323 0-1.19141l7.89649-13.27148zm-143.061061 9.13658-.000031 27.78894c.0083.0578.01128.11542.0098.17383 3.823563-4.01646 5.328272-4.57363 11.927766-4.57363v-.002l122.410156-.002c4.65321-.0933 6.10098-1.97074 6.55255-2.86308v-27.20191c-1.88269 1.61766-2.79967 1.81846-6.45099 1.78765v.006h-.13477c-.0115.00003-.0217.002-.0332.002-.0113-.00048-.0239-.00095-.0352-.002l-122.308586.002c-5.051311 0-7.839192-.026-11.9375 4.8843z" fill="url(#a)"/><path d="m44.909662 217.67132c-4.068148 0-7.023112 2.75578-7.023112 6.60501s2.953824 6.6032 6.967244 6.6032c1.824284 0 3.758562-.56569 5.163258-1.62377v-5.18128h-2.699672v3.73954c-.747954.40134-1.495101.54786-2.297784.54786-2.444539 0-4.141421-1.69575-4.141421-4.08555 0-2.4263 1.69644-4.08735 4.177464-4.08735 1.29524 0 2.371218.45663 3.301602 1.44175l1.897702-1.75173c-1.240513-1.44119-3.101413-2.20768-5.345281-2.20768zm14.037215 0c-4.031664 0-6.987069 2.8105-6.987069 6.60501s2.955405 6.6032 6.987069 6.6032c4.013423 0 6.98707-2.79045 6.98707-6.6032 0-3.81276-2.973647-6.60501-6.98707-6.60501zm30.464124 0c-4.03166 0-6.98707 2.8105-6.98707 6.60501s2.95541 6.6032 6.98707 6.6032c4.01342 0 6.98707-2.79045 6.98707-6.6032 0-3.81276-2.97365-6.60501-6.98707-6.60501zm46.710809 0c-4.03167 0-6.98707 2.8105-6.98707 6.60501s2.9554 6.6032 6.98707 6.6032c4.01342 0 6.98707-2.79045 6.98707-6.6032 0-3.81276-2.97365-6.60501-6.98707-6.60501zm15.33839 0c-3.97694 0-6.93301 2.75578-6.93301 6.60501s2.95629 6.6032 6.91499 6.6032c2.22563 0 4.06736-.8021 5.27139-2.27977l-1.8959-1.75171c-.85742 1.00335-1.9345 1.51383-3.21149 1.51383-2.38981 0-4.08556-1.6775-4.08556-4.08555s1.69575-4.08735 4.08556-4.08735c1.27699 0 2.35407.51069 3.21149 1.49581l1.8959-1.74992c-1.20403-1.45942-3.04599-2.26355-5.25337-2.26355zm11.75925 0c-3.63032 0-5.38132 1.80652-5.38132 3.97743 0 4.74313 7.4232 3.10145 7.4232 5.49125 0 .78443-.71048 1.36786-2.46179 1.36786-1.5324 0-3.13718-.54737-4.2135-1.33182l-1.00382 2.2257c1.13106.87565 3.17435 1.47779 5.19929 1.47779 3.64857 0 5.41737-1.82499 5.41737-3.95939 0-4.68841-7.42499-3.06405-7.42499-5.41737 0-.80268.67623-1.45977 2.42754-1.45977 1.13105 0 2.35191.32883 3.53769 1.00382l.9119-2.24372c-1.18578-.74795-2.82621-1.13178-4.43157-1.13178zm-95.065212.21987v12.77028h5.801233c4.17761 0 7.04293-2.51766 7.04293-6.38514s-2.86532-6.38514-7.04293-6.38514zm28.845763 0v2.40772h4.085539v10.36256h2.95558v-10.36256h4.08735v-2.40772zm17.866839 0v12.77028h5.80123c4.1776 0 7.04114-2.51766 7.04115-6.38514 0-3.86748-2.86355-6.38514-7.04115-6.38514zm-55.919962 2.29779c2.280352 0 3.995443 1.66105 3.995443 4.08735 0 2.42629-1.715091 4.08555-3.995443 4.08555-2.280353 0-3.995442-1.65926-3.995444-4.08555 0-2.4263 1.715091-4.08735 3.995444-4.08735zm30.464123 0c2.28035 0 3.99545 1.66105 3.99545 4.08735 0 2.42629-1.7151 4.08555-3.99545 4.08555s-3.99544-1.65926-3.99544-4.08555c0-2.4263 1.71509-4.08735 3.99544-4.08735zm46.710809 0c2.28034 0 3.99544 1.66105 3.99544 4.08735 0 2.42629-1.7151 4.08555-3.99544 4.08555-2.28036 0-3.99365-1.65926-3.99365-4.08555 0-2.4263 1.71329-4.08735 3.99365-4.08735zm-65.011991.12795h2.699672c2.53575 0 4.19729 1.51486 4.19729 3.9594s-1.66154 3.95759-4.19729 3.95759h-2.699672zm46.712601 0h2.69967c2.53575 0 4.1955 1.51486 4.1955 3.9594s-1.65975 3.95759-4.1955 3.95759h-2.69967z" fill="#fff"/><ellipse cx=".233013" cy="229.00215" fill="#293252" rx="24.748463" ry="24.735935"/><g enable-background="new" transform="matrix(1.7588361 0 0 1.7588361 -46.364733 -245.766381)"><g fill="#fff"><path d="m24.731945 267.9692-1.749525.43739v.43738l1.049886.39382-1.049886.26225v.43738l1.049886.39381-1.049886.26226v.43738l1.749525-.43738v-.43738l-1.049886-.39381 1.049886-.26226v-.43738l-1.049886-.39382 1.049886-.26225z" fill-opacity=".358268" stroke-width=".218691"/><path d="m24.607903 260.75891c-.846877.18827-1.684477.45037-2.469901.8457.01796.69353.06278 1.35805.153668 2.03305-.305022.19542-.625563.36315-.91046.59193-.289472.22269-.584991.43543-.847104.69587-.523643-.34634-1.078091-.67181-1.649051-.9591-.61545.66235-1.190863 1.37728-1.660953 2.17725.353669.57213.72288 1.10862 1.121537 1.61755h.0112v3.95093.50196.45681l-.0039.64933h-.001c.0013.29089.0049.60934.0049.67278 0 2.85846 3.625997 4.23233 8.131143 4.24812h.0055.0055c4.505145-.0158 8.130091-1.38966 8.130093-4.24812 0-.0646.004-.38173.0053-.67278h-.000992l-.0042-.64933v-.39169l.000992-.00071v-4.5173h.01121c.398741-.50893.767702-1.04542 1.121538-1.61755-.469922-.79997-1.045854-1.5149-1.661302-2.17725-.570795.28729-1.125059.61276-1.648702.9591-.262031-.26044-.557216-.47318-.847103-.69587-.284816-.22878-.605671-.39651-.910112-.59193.09064-.675.135275-1.33952.153319-2.03305-.785506-.39533-1.622958-.65743-2.470251-.8457-.338285.56855-.647682 1.18403-.917112 1.78592-.319492-.0533-.640515-.0731-.961917-.077v-.00034c-.0022 0-.0044.00034-.0064.00034s-.0039-.00034-.006-.00034v.00034c-.321987.004-.642694.0236-.962267.077-.269265-.60189-.578679-1.21737-.917463-1.78592z" stroke="#fff" stroke-linejoin="round" stroke-width="1.23982"/><path d="m34.629216 272.67078s-.02703-.16582-.04283-.16432l-3.008808.2903c-.23941.0231-.425351.21404-.44215.45395l-.08266 1.18475-2.327747.16607-.158333-1.07374c-.03525-.23883-.243818-.41886-.485224-.41886h-3.175623c-.241322 0-.449882.18003-.485141.41886l-.158415 1.07374-2.327748-.16607-.08266-1.18475c-.0168-.24-.202738-.43092-.442149-.45404l-3.010305-.29021c-.01555-.002-.02694.16448-.04249.16448l-.0041.65112 2.549445.41114.08349 1.1953c.01689.242.212134.43766.454289.45504l3.205808.22868c.01213.00068.02412.002.03609.002.240907 0 .449134-.18012.484392-.41895l.162905-1.10483h2.32883l.162906 1.10483c.03517.23876.24365.41887.484891.41887.0118 0 .02362-.00042.03517-.002l3.206224-.22868c.242072-.0174.437408-.21305.45429-.45505l.0834-1.1953 2.548365-.41296z"/></g><path d="m18.356904 267.76107v3.95115.50185.45671c.009.00007.01796.00041.02686.002l3.009973.29022c.157667.0153.281238.14212.292215.30012l.0928 1.32869 2.625618.18736.180867-1.22632c.02345-.159.15983-.27684.320656-.27684h3.175623c.160743 0 .297122.11784.320573.27684l.180867 1.22632 2.625701-.18736.09272-1.32869c.01106-.158.134549-.28481.292216-.30012l3.008807-.29022c.0089-.00068.0178-.002.02677-.002v-.39177l.0013-.00041v-4.51753h.01115c.39874-.50893.767711-1.04521 1.121546-1.61733-.469923-.79999-1.045706-1.51488-1.661156-2.17724-.570794.28731-1.125206.61279-1.648848.95914-.262031-.26045-.557157-.47351-.847044-.69619-.284815-.22878-.605803-.3965-.910244-.59192.09064-.67498.135464-1.3395.15351-2.03303-.785507-.39534-1.623154-.65745-2.470446-.84572-.338285.56855-.647632 1.18425-.917062 1.78613-.319492-.0534-.64048-.0731-.961884-.077v-.00049c-.0022 0-.0043.00049-.0063.00049s-.0041-.00049-.0061-.00049v.00049c-.321987.004-.642725.0236-.962301.077-.269264-.60188-.578443-1.21758-.917228-1.78613-.846877.18827-1.684607.45038-2.47003.84572.01796.69353.06279 1.35805.153675 2.03303-.305021.19542-.625594.36314-.910492.59192-.289472.22268-.585097.43574-.84721.69619-.523643-.34635-1.077889-.67183-1.648848-.95914-.61545.66236-1.1909 1.37725-1.66099 2.17724.353669.57212.722889 1.1084 1.121546 1.61733z" fill="#478cbf"/><path d="m31.928906 273.58116-.09322 1.33575c-.01122.161-.139289.28915-.300282.30071l-3.206141.22875c-.0078.0006-.01564.00069-.02337.00069-.159329 0-.296788-.11692-.320322-.27692l-.183862-1.24686h-2.616055l-.183861 1.24686c-.0247.16782-.174714.28847-.34369.27608l-3.206142-.22876c-.160991-.0116-.289055-.13971-.300281-.3007l-.09322-1.33576-2.706531-.26094c.0013.29088.005.60953.005.67299 0 2.85845 3.626087 4.23239 8.131233 4.24818h.0055.0055c4.505145-.0158 8.129985-1.38973 8.129985-4.24818 0-.0646.004-.38195.0052-.67299z" fill="#478cbf"/><path d="m24.040751 269.75408c0 1.00222-.812033 1.81409-1.813917 1.81409-1.001383 0-1.813666-.81187-1.813666-1.81409 0-1.00155.812283-1.81301 1.813666-1.81301 1.001884 0 1.813917.81146 1.813917 1.81301" fill="#fff"/><path d="m23.604291 269.86167c0 .66477-.538779 1.20353-1.20404 1.20353-.664928 0-1.204038-.53876-1.204038-1.20353 0-.66476.53911-1.20403 1.204038-1.20403.665261 0 1.20404.53927 1.20404 1.20403" fill="#293252"/><path d="m26.493534 271.73319c-.322485 0-.58385-.23766-.58385-.53061v-1.6699c0-.29271.261365-.53063.58385-.53063s.584432.23792.584432.53063v1.6699c0 .29295-.261947.53061-.584432.53061" fill="#fff"/><path d="m28.946618 269.75408c0 1.00222.812033 1.81409 1.814082 1.81409 1.0013 0 1.813501-.81187 1.813501-1.81409 0-1.00155-.812201-1.81301-1.813501-1.81301-1.002049 0-1.814082.81146-1.814082 1.81301" fill="#fff"/><path d="m29.383186 269.86167c0 .66477.538613 1.20353 1.203374 1.20353.665427 0 1.204039-.53876 1.204039-1.20353 0-.66476-.538612-1.20403-1.204039-1.20403-.664761 0-1.203374.53927-1.203374 1.20403" fill="#293252"/></g><circle cx="229.01976" cy="-.233496" r="21.652594" style="fill:none;stroke:#738ed7;stroke-width:.740435;stroke-linecap:round;stroke-miterlimit:3.9;stroke-dasharray:.740435 2.665566;stroke-dashoffset:6.737958" transform="rotate(90)"/><circle cx=".23356" cy="229.0197" r="23.505161" style="fill:none;stroke:#506dbd;stroke-width:.634659;stroke-linejoin:round;stroke-miterlimit:3.8;stroke-dashoffset:37.7953"/><g transform="matrix(.27986668 0 0 .27986668 -27.753655 203.56217)"><path d="m72.289268 68.070186a22.057718 22.057718 0 0 0 -22.057054 22.057054 22.057718 22.057718 0 0 0 22.057054 22.05706 22.057718 22.057718 0 0 0 22.059082-22.05706 22.057718 22.057718 0 0 0 -.336625-3.700849c2.136946-2.387488 4.183142-3.363887 5.972053-3.352055 1.804312.01188 3.824732.995357 5.951782 3.631901a22.057718 22.057718 0 0 0 -.27985 3.421003 22.057718 22.057718 0 0 0 22.05706 22.05706 22.057718 22.057718 0 0 0 22.05907-22.05706 22.057718 22.057718 0 0 0 -22.05907-22.057054 22.057718 22.057718 0 0 0 -20.30094 13.489337c-2.2562-1.993602-4.75752-3.123715-7.39561-3.141158-2.670117-.01767-5.189825 1.08572-7.472668 2.987041a22.057718 22.057718 0 0 0 -20.254284-13.33522zm0 4.432905a17.625065 17.625065 0 0 1 17.626175 17.624149 17.625065 17.625065 0 0 1 -17.626175 17.62618 17.625065 17.625065 0 0 1 -17.624147-17.62618 17.625065 17.625065 0 0 1 17.624147-17.624149zm55.423502 0a17.625065 17.625065 0 0 1 17.62617 17.624149 17.625065 17.625065 0 0 1 -17.62617 17.62618 17.625065 17.625065 0 0 1 -17.62415-17.62618 17.625065 17.625065 0 0 1 17.62415-17.624149z" fill="#293252"/><g fill="#fff" fill-opacity=".370558"><circle cx="72.28994" cy="90.12748" r="17.625067"/><circle cx="127.71365" cy="90.12748" r="17.625067"/></g></g></g></svg>
