<?xml version="1.0" encoding="UTF-8" standalone="no"?>
<!-- Created with Inkscape (http://www.inkscape.org/) -->

<svg
   xmlns:dc="http://purl.org/dc/elements/1.1/"
   xmlns:cc="http://creativecommons.org/ns#"
   xmlns:rdf="http://www.w3.org/1999/02/22-rdf-syntax-ns#"
   xmlns:svg="http://www.w3.org/2000/svg"
   xmlns="http://www.w3.org/2000/svg"
   xmlns:sodipodi="http://sodipodi.sourceforge.net/DTD/sodipodi-0.dtd"
   xmlns:inkscape="http://www.inkscape.org/namespaces/inkscape"
   width="200"
   height="200"
   viewBox="0 0 200 200"
   id="svg2"
   version="1.1"
   inkscape:version="0.91 r13725"
   sodipodi:docname="docs_logo.svg"
   inkscape:export-filename="/home/djrm/Projects/godot-docs/img/docs_logo.png"
   inkscape:export-xdpi="90"
   inkscape:export-ydpi="90"
   style="enable-background:new">
  <defs
     id="defs4">
    <inkscape:path-effect
       effect="bend_path"
       id="path-effect4297"
       is_visible="true"
       bendpath="m -22.779723,939.63795 c 60.930311,-6.29793 117.268912,-6.3655 171.113763,0"
       prop_scale="1"
       scale_y_rel="false"
       vertical="false"
       bendpath-nodetypes="cc" />
    <filter
       inkscape:collect="always"
       style="color-interpolation-filters:sRGB"
       id="filter4200">
      <feBlend
         inkscape:collect="always"
         mode="lighten"
         in2="BackgroundImage"
         id="feBlend4202" />
    </filter>
  </defs>
  <sodipodi:namedview
     id="base"
     pagecolor="#ffffff"
     bordercolor="#666666"
     borderopacity="1.0"
     inkscape:pageopacity="0.0"
     inkscape:pageshadow="2"
     inkscape:zoom="2.8284271"
     inkscape:cx="114.31611"
     inkscape:cy="98.363933"
     inkscape:document-units="px"
     inkscape:current-layer="g4175"
     showgrid="false"
     units="px"
     inkscape:window-width="1920"
     inkscape:window-height="1016"
     inkscape:window-x="0"
     inkscape:window-y="27"
     inkscape:window-maximized="1" />
  <metadata
     id="metadata7">
    <rdf:RDF>
      <cc:Work
         rdf:about="">
        <dc:format>image/svg+xml</dc:format>
        <dc:type
           rdf:resource="http://purl.org/dc/dcmitype/StillImage" />
        <dc:title></dc:title>
      </cc:Work>
    </rdf:RDF>
  </metadata>
  <g
     inkscape:label="Layer 1"
     inkscape:groupmode="layer"
     id="layer1"
     transform="translate(0,-852.3622)"
     style="filter:url(#filter4200)">
    <path
       style="opacity:1;fill:#f8f6ec;fill-opacity:1;stroke:none;stroke-width:2;stroke-linecap:round;stroke-linejoin:round;stroke-miterlimit:4;stroke-dasharray:none;stroke-dashoffset:0;stroke-opacity:1"
       d="m 98.111328,857.86133 c -40.966725,0.3438 -78.271608,34.58243 -81.98456,75.40887 -2.782639,24.21272 5.616008,49.41405 22.228701,67.2239 -5.008836,-1.0907 -11.80716,1.6697 -10.455078,7.8789 -0.246458,3.4399 1.14619,7.7346 -0.416016,10.6153 -8.027194,1.3773 -17.204512,-1.0914 -24.7695312,2.5918 -2.21830642,7.4186 8.6106422,9.1956 12.0800782,11.5097 -4.104406,3.5372 -12.4773632,2.9731 -13.5459929,9.3593 2.8765249,6.2274 11.7154099,3.4586 17.2139619,4.463 9.519333,-0.4084 19.519995,-1.4514 28.339843,-4.8848 2.139314,-1.6932 0.635133,-4.964 1.027344,-6.6972 34.551127,-3.2385 69.627312,-2.5635 104.224612,0.3144 -1.33712,4.7046 2.63623,8.8709 7.30881,8.3471 12.54877,2.5059 26.4924,5.1211 38.71467,0.3835 2.77813,-4.7258 -3.89529,-7.8773 -7.74028,-8.5274 -1.56316,-0.9414 -7.05347,-2.8783 -3.17969,-3.7598 4.06569,-1.6951 12.34924,-4.5443 9.95313,-10.1543 -5.43443,-4.6805 -13.28093,-0.9748 -19.68555,-2.6328 -3.0395,-0.1527 -7.42252,0.4554 -5.79883,-3.9492 0.45905,-5.1967 1.66923,-14.4745 -5.91211,-14.6407 -5.52331,0.6328 -0.83363,-2.50341 0.91016,-4.95309 23.86129,-29.04436 24.9139,-74.26387 1.66992,-103.99804 -16.13168,-21.69975 -43.17533,-34.6942 -70.183592,-33.89844 z"
       id="circle4538"
       inkscape:connector-curvature="0"
       inkscape:export-xdpi="90"
       inkscape:export-ydpi="90" />
    <g
       id="g4175"
       transform="matrix(0.97390269,0,0,0.97390269,3.493751,25.185882)">
      <circle
         style="opacity:1;fill:#e3d2bf;fill-opacity:1;stroke:none;stroke-width:2;stroke-linecap:round;stroke-linejoin:round;stroke-miterlimit:4;stroke-dasharray:none;stroke-dashoffset:0;stroke-opacity:1"
         id="circle4303"
         cx="99.553658"
         cy="942.11407"
         r="83.031273" />
      <path
         style="fill:#d94444;fill-opacity:1;fill-rule:evenodd;stroke:none;stroke-width:1px;stroke-linecap:butt;stroke-linejoin:miter;stroke-opacity:1"
         d="m 167.17636,1022.6591 c -1.75411,2.4119 22.18971,2.5353 28.43048,2.738 -2.17153,2.447 -16.91465,8.4121 -16.91465,8.4121 4.89804,4.1953 8.90572,6.9585 18.07413,10.2196 -17.93923,2.3738 -28.39128,-0.2278 -40.19183,-2.9079 l 11.83895,-6.6986 z"
         id="path4299"
         inkscape:connector-curvature="0"
         sodipodi:nodetypes="ccccccc" />
      <circle
         r="75.199608"
         cy="942.11407"
         cx="99.553658"
         id="path4261"
         style="opacity:1;fill:#ffffff;fill-opacity:1;stroke:none;stroke-width:2;stroke-linecap:round;stroke-linejoin:round;stroke-miterlimit:4;stroke-dasharray:none;stroke-dashoffset:0;stroke-opacity:1" />
      <g
         inkscape:label="Layer 1"
         id="layer1-6"
         transform="matrix(0.13066954,0,0,0.13066954,32.118653,869.449)">
        <g
           id="g4149"
           transform="matrix(1.0688992,0,0,1.1334985,-45.061194,-81.689066)">
          <path
             sodipodi:nodetypes="cccccccccc"
             inkscape:connector-curvature="0"
             id="path3239"
             d="m 116.99388,715.36604 43.13957,-74.51381 75.99672,-171.42666 271.088,-13.63746 282.06373,14.1696 138.45065,255.56931 -25.0756,66.96734 -376.12685,53.39482 -367.70391,-40.32222 z"
             style="fill:#ffffff;fill-opacity:1;stroke:none" />
          <g
             transform="matrix(12.995388,0,0,-12.995388,898.37246,704.73082)"
             id="g3412">
            <path
               id="path3414"
               style="fill:#478cbf;fill-opacity:1;fill-rule:nonzero;stroke:none"
               d="m 0,0 0,-3.942 c 0,-0.39 -0.25,-0.734 -0.621,-0.852 L -6.835,-6.8 c -0.273,-0.091 -0.57,-0.042 -0.8,0.128 -0.232,0.168 -0.37,0.437 -0.37,0.721 l 0,4.305 -5.818,-1.108 0,-4.381 c 0,-0.447 -0.332,-0.824 -0.775,-0.885 l -8.41,-1.152 c -0.039,-0.003 -0.081,-0.008 -0.121,-0.008 -0.214,0 -0.424,0.078 -0.588,0.22 -0.195,0.172 -0.306,0.416 -0.306,0.676 l 0,4.638 -4.341,-0.018 0,-10e-4 -0.318,10e-4 -0.319,-10e-4 0,10e-4 -4.34,0.018 0,-4.638 c 0,-0.26 -0.112,-0.504 -0.307,-0.676 -0.164,-0.142 -0.374,-0.22 -0.587,-0.22 -0.041,0 -0.082,0.005 -0.123,0.008 l -8.41,1.152 c -0.442,0.061 -0.774,0.438 -0.774,0.885 l 0,4.381 -5.819,1.108 0,-4.305 c 0,-0.284 -0.137,-0.553 -0.368,-0.721 -0.232,-0.17 -0.529,-0.219 -0.802,-0.128 l -6.215,2.006 c -0.369,0.118 -0.619,0.462 -0.619,0.852 l 0,3.942 -3.837,1.29 c -0.19,-0.811 -0.295,-1.642 -0.295,-2.481 0,-10.301 14.512,-18.252 32.448,-18.309 l 0.022,0 0.023,0 c 17.936,0.057 32.448,8.008 32.448,18.309 0,0.766 -0.088,1.521 -0.247,2.266 L 0,0 Z"
               inkscape:connector-curvature="0" />
          </g>
          <g
             transform="matrix(12.995388,0,0,-12.995388,140.10982,467.34929)"
             id="g3416">
            <path
               id="path3418"
               style="fill:#478cbf;fill-opacity:1;fill-rule:nonzero;stroke:none"
               d="m 0,0 0,-16.047 2.163,-0.729 c 0.364,-0.122 0.61,-0.462 0.61,-0.847 l 0,-3.936 4.426,-1.428 0,4.154 c 0,0.27 0.118,0.52 0.323,0.689 0.206,0.172 0.474,0.241 0.739,0.192 l 7.608,-1.452 c 0.422,-0.079 0.728,-0.448 0.728,-0.877 l 0,-4.338 6.62,-0.904 0,4.509 c 0,0.241 0.096,0.467 0.264,0.635 0.167,0.166 0.394,0.259 0.633,0.259 l 0.002,0 5.551,-0.022 5.549,0.022 c 0.245,-10e-4 0.468,-0.093 0.635,-0.259 0.169,-0.168 0.264,-0.394 0.264,-0.635 l 0,-4.509 6.621,0.904 0,4.338 c 0,0.429 0.304,0.798 0.726,0.877 l 7.609,1.452 c 0.262,0.049 0.533,-0.02 0.738,-0.192 0.205,-0.169 0.325,-0.419 0.325,-0.689 l 0,-4.154 4.425,1.428 0,3.936 c 0,0.385 0.245,0.725 0.609,0.847 l 1.475,0.497 0,16.279 0.04,0 c 1.437,1.834 2.767,3.767 4.042,5.828 -1.694,2.883 -3.768,5.459 -5.986,7.846 -2.057,-1.035 -4.055,-2.208 -5.942,-3.456 -0.944,0.938 -2.008,1.706 -3.052,2.509 -1.027,0.824 -2.183,1.428 -3.281,2.132 0.327,2.433 0.489,4.828 0.554,7.327 -2.831,1.424 -5.85,2.369 -8.903,3.047 -1.219,-2.048 -2.334,-4.267 -3.304,-6.436 -1.152,0.192 -2.309,0.264 -3.467,0.277 l 0,0.002 c -0.008,0 -0.015,-0.002 -0.022,-0.002 -0.008,0 -0.015,0.002 -0.022,0.002 l 0,-0.002 c -1.16,-0.013 -2.316,-0.085 -3.468,-0.277 -0.97,2.169 -2.084,4.388 -3.305,6.436 C 19.475,24.555 16.456,23.61 13.626,22.186 13.69,19.687 13.852,17.292 14.18,14.859 13.081,14.155 11.925,13.551 10.898,12.727 9.855,11.924 8.79,11.156 7.846,10.218 5.958,11.466 3.961,12.639 1.904,13.674 -0.314,11.287 -2.388,8.711 -4.082,5.828 -2.807,3.767 -1.477,1.834 -0.04,0 L 0,0 Z"
               inkscape:connector-curvature="0" />
          </g>
          <g
             transform="matrix(12.995388,0,0,-12.995388,411.4457,567.42812)"
             id="g3420">
            <path
               id="path3422"
               style="fill:#ffffff;fill-opacity:1;fill-rule:nonzero;stroke:none"
               d="m 0,0 c 0,-3.611 -2.926,-6.537 -6.537,-6.537 -3.608,0 -6.535,2.926 -6.535,6.537 0,3.609 2.927,6.533 6.535,6.533 C -2.926,6.533 0,3.609 0,0"
               inkscape:connector-curvature="0" />
          </g>
          <g
             transform="matrix(12.995388,0,0,-12.995388,391.00655,572.46636)"
             id="g3424">
            <path
               id="path3426"
               style="fill:#414042;fill-opacity:1;fill-rule:nonzero;stroke:none"
               d="m 0,0 c 0,-2.396 -1.941,-4.337 -4.339,-4.337 -2.396,0 -4.339,1.941 -4.339,4.337 0,2.396 1.943,4.339 4.339,4.339 C -1.941,4.339 0,2.396 0,0"
               inkscape:connector-curvature="0" />
          </g>
          <g
             transform="matrix(12.995388,0,0,-12.995388,526.30933,660.10985)"
             id="g3428">
            <path
               id="path3430"
               style="fill:#ffffff;fill-opacity:1;fill-rule:nonzero;stroke:none"
               d="m 0,0 c -1.162,0 -2.104,0.856 -2.104,1.912 l 0,6.018 c 0,1.054 0.942,1.912 2.104,1.912 1.162,0 2.106,-0.858 2.106,-1.912 l 0,-6.018 C 2.106,0.856 1.162,0 0,0"
               inkscape:connector-curvature="0" />
          </g>
          <g
             transform="matrix(12.995388,0,0,-12.995388,641.18731,567.42812)"
             id="g3432">
            <path
               id="path3434"
               style="fill:#ffffff;fill-opacity:1;fill-rule:nonzero;stroke:none"
               d="m 0,0 c 0,-3.611 2.926,-6.537 6.537,-6.537 3.609,0 6.535,2.926 6.535,6.537 0,3.609 -2.926,6.533 -6.535,6.533 C 2.926,6.533 0,3.609 0,0"
               inkscape:connector-curvature="0" />
          </g>
          <g
             transform="matrix(12.995388,0,0,-12.995388,661.63165,572.46636)"
             id="g3436">
            <path
               id="path3438"
               style="fill:#414042;fill-opacity:1;fill-rule:nonzero;stroke:none"
               d="m 0,0 c 0,-2.396 1.941,-4.337 4.336,-4.337 2.398,0 4.339,1.941 4.339,4.337 0,2.396 -1.941,4.339 -4.339,4.339 C 1.941,4.339 0,2.396 0,0"
               inkscape:connector-curvature="0" />
          </g>
        </g>
      </g>
      <path
         sodipodi:nodetypes="ccccccc"
         inkscape:connector-curvature="0"
         id="path4266"
         d="m 31.008216,1022.6591 c 1.754123,2.4119 -22.189714,2.5353 -28.4304835,2.738 2.1715306,2.447 16.9146555,8.4121 16.9146555,8.4121 -4.898043,4.1953 -8.905725,6.9585 -18.0741245,10.2196 17.9392275,2.3738 28.3912805,-0.2278 40.1918265,-2.9079 l -11.83896,-6.6986 z"
         style="fill:#d94444;fill-opacity:1;fill-rule:evenodd;stroke:none;stroke-width:1px;stroke-linecap:butt;stroke-linejoin:miter;stroke-opacity:1" />
      <path
         inkscape:connector-curvature="0"
         id="path4268"
         d="m 29.822169,1034.4783 11.761996,6.7212 -0.646264,-9.5001 z"
         style="fill:#a52222;fill-opacity:1;fill-rule:evenodd;stroke:none;stroke-width:1px;stroke-linecap:butt;stroke-linejoin:miter;stroke-opacity:1" />
      <path
         style="fill:#a52222;fill-opacity:1;fill-rule:evenodd;stroke:none;stroke-width:1px;stroke-linecap:butt;stroke-linejoin:miter;stroke-opacity:1"
         d="m 168.36241,1034.4783 -11.762,6.7212 0.64627,-9.5001 z"
         id="path4301"
         inkscape:connector-curvature="0" />
      <path
         sodipodi:nodetypes="sssssssss"
         inkscape:connector-curvature="0"
         id="rect4263"
         d="m 30.000503,1006.018 c 44.578868,-4.176 90.410487,-4.5938 137.912627,0 0.39201,0.038 0.71089,0.3171 0.71089,0.7109 l 0,27.2724 c 0,0.3938 -0.31868,0.7466 -0.71089,0.7109 -41.9551,-3.8333 -85.368329,-6.2748 -137.912627,0 -0.391054,0.047 -0.71089,-0.3171 -0.71089,-0.7109 l 0,-27.2724 c 0,-0.3938 0.318774,-0.6741 0.71089,-0.7109 z"
         style="opacity:1;fill:#de5e5e;fill-opacity:1;stroke:none;stroke-width:2;stroke-linecap:round;stroke-linejoin:round;stroke-miterlimit:4;stroke-dasharray:none;stroke-dashoffset:0;stroke-opacity:1" />
      <g
         id="flowRoot4270"
         style="font-style:normal;font-variant:normal;font-weight:normal;font-stretch:condensed;font-size:44.41232681px;line-height:125%;font-family:'PT Sans Narrow';-inkscape-font-specification:'PT Sans Narrow Condensed';letter-spacing:0px;word-spacing:0px;fill:#ffffff;fill-opacity:1;stroke:none;stroke-width:1px;stroke-linecap:butt;stroke-linejoin:miter;stroke-opacity:1"
         transform="matrix(0.61746838,0,0,0.61746838,62.822459,438.45977)">
        <path
           inkscape:connector-curvature="0"
           id="path4279"
           d="m -13.296566,938.75009 c 2.851147,-0.2659 5.7037296,-0.5188 8.5575729,-0.75839 l 1.1447479,13.63567 c -0.7513592,0.83576 -1.748356,1.51471 -2.9913359,2.03933 -1.2455988,0.49513 -2.5207108,0.80226 -3.8277579,0.92179 -1.626512,0.14874 -3.136097,-0.0212 -4.532919,-0.51146 -1.367581,-0.49302 -2.58188,-1.34032 -3.644446,-2.54346 -1.065362,-1.23241 -1.965138,-2.82283 -2.697776,-4.77154 -0.703198,-1.9513 -1.202107,-4.32679 -1.491243,-7.12408 -0.298389,-2.88682 -0.24086,-5.36223 0.178779,-7.42992 0.416516,-2.09663 1.084465,-3.83112 2.004926,-5.20303 0.947295,-1.40417 2.069071,-2.46688 3.363121,-3.18645 1.32397,-0.72241 2.709249,-1.15022 4.152127,-1.28255 1.442703,-0.13231 2.655283,-0.13612 3.6352976,-0.0141 1.0076699,0.0899 1.8711982,0.26837 2.5899346,0.53419 -0.185316,1.02641 -0.3697448,2.05285 -0.5532892,3.07932 -0.6268785,-0.27312 -1.367886,-0.46158 -2.2225826,-0.56454 -0.8246754,-0.10559 -1.7769344,-0.10971 -2.8556114,-0.0112 -1.048767,0.0958 -2.032128,0.4104 -2.948171,0.94319 -0.9161,0.53283 -1.712856,1.3532 -2.388806,2.4603 -0.649043,1.07486 -1.114547,2.45952 -1.397033,4.15399 -0.282548,1.69484 -0.301585,3.74915 -0.06075,6.16571 0.440316,4.41813 1.459142,7.62254 3.038155,9.6092 1.606968,1.95634 3.612988,2.82021 6.031138,2.6002 1.5153592,-0.13788 2.7354606,-0.61692 3.6636574,-1.44084 l -0.7860484,-9.02871 c -1.9255692,-0.11486 -3.85233,-0.22367 -5.780189,-0.3265 z"
           style="fill:#ffffff;fill-opacity:1" />
        <path
           inkscape:connector-curvature="0"
           id="path4281"
           d="m -0.87449871,942.08798 c -0.31926989,-3.98704 0.12516136,-6.9623 1.3491775,-8.93089 1.25020331,-1.99843 3.16423511,-3.09583 5.73162741,-3.27869 2.7466672,-0.19563 4.8277218,0.63356 6.2310468,2.47215 1.434625,1.83864 2.265013,4.70819 2.507606,8.61194 0.249776,4.01935 -0.258617,7.00634 -1.508382,8.95522 -1.251134,1.951 -3.106312,3.0082 -5.5768909,3.18393 -2.6739522,0.19019 -4.7217682,-0.61749 -6.1547908,-2.43747 -1.40239674,-1.82035 -2.26741281,-4.68016 -2.57939401,-8.57619 z m 3.31259861,-0.25902 c 0.099243,1.29941 0.263095,2.47535 0.4906827,3.52734 0.2569279,1.04979 0.5900134,1.94551 0.9986883,2.68702 0.4379461,0.73937 0.9650588,1.30896 1.5813695,1.70913 0.6141942,0.37066 1.3290301,0.52655 2.145751,0.46845 1.516438,-0.10788 2.6070006,-0.86467 3.2758986,-2.27542 0.66636,-1.43913 0.901598,-3.69759 0.69891,-6.77063 -0.08383,-1.27104 -0.249249,-2.43254 -0.497289,-3.4849 -0.220405,-1.08386 -0.54892,-1.99704 -0.986393,-2.73963 -0.4077574,-0.74451 -0.9232313,-1.3034 -1.5464013,-1.67623 -0.6251398,-0.40235 -1.3549001,-0.57426 -2.187915,-0.51494 -1.5175765,0.10807 -2.6269245,0.8887 -3.3237399,2.337 -0.6676551,1.44716 -0.8819609,3.68998 -0.6495619,6.73281 z"
           style="fill:#ffffff;fill-opacity:1" />
        <path
           inkscape:connector-curvature="0"
           id="path4283"
           d="m 33.248999,943.48907 c 0.06146,1.50915 0.132192,2.88498 0.211959,4.1266 0.07857,1.21216 0.229486,2.40657 0.451789,3.58328 -0.712959,0.0288 -1.425923,0.0586 -2.13889,0.0893 -0.270893,-0.87774 -0.542539,-1.75536 -0.814936,-2.63285 -7e-6,0 -0.175162,0.008 -0.175168,0.008 -0.369699,0.90574 -0.978076,1.674 -1.824114,2.30625 -0.846137,0.63231 -1.878592,0.97803 -3.100107,1.0393 -2.355116,0.11813 -4.163901,-0.71578 -5.436309,-2.51344 -1.241854,-1.79732 -1.98666,-4.69394 -2.219591,-8.68456 -0.220996,-3.78614 0.320278,-6.69418 1.641514,-8.72757 1.349807,-2.03321 3.301686,-3.11834 5.843211,-3.24256 0.866758,-0.0424 1.557417,-0.0155 2.070926,0.0792 0.512234,0.0652 1.07267,0.20267 1.680718,0.4128 l -0.407295,-9.14335 c 1.087117,-0.0483 2.17439,-0.0945 3.261811,-0.13867 z m -3.664663,-10.91645 c -0.432481,-0.33653 -0.920395,-0.56652 -1.463391,-0.68969 -0.514488,-0.15411 -1.20415,-0.21083 -2.068051,-0.16882 -1.57931,0.0768 -2.77971,0.8512 -3.595729,2.31812 -0.78689,1.46643 -1.09575,3.67706 -0.934525,6.63554 0.07091,1.30128 0.209088,2.48055 0.413616,3.53725 0.23229,1.0256 0.530143,1.91437 0.893078,2.66616 0.392221,0.75027 0.861829,1.3187 1.408951,1.70555 0.576385,0.38537 1.257963,0.55815 2.045947,0.51917 2.099745,-0.10386 3.385195,-1.42046 3.859639,-3.96228 z"
           style="fill:#ffffff;fill-opacity:1" />
        <path
           inkscape:connector-curvature="0"
           id="path4285"
           d="m 37.382109,939.86335 c -0.142094,-3.99719 0.433641,-6.94938 1.744864,-8.86134 1.338594,-1.94041 3.301374,-2.95076 5.876036,-3.01702 2.754426,-0.0709 4.796644,0.8528 6.114261,2.75334 1.349036,1.90224 2.0457,4.80593 2.107906,8.71558 0.06404,4.02516 -0.580929,6.9849 -1.916228,8.87384 -1.336906,1.8912 -3.234219,2.86253 -5.705088,2.92682 -2.674287,0.0696 -4.679827,-0.82809 -6.028297,-2.70976 -1.317758,-1.88047 -2.054613,-4.77577 -2.193454,-8.68146 z m 3.318887,-0.11141 c 0.04102,1.30237 0.152057,2.48433 0.33218,3.54529 0.209502,1.06008 0.501827,1.96967 0.876356,2.72859 0.403829,0.7581 0.904105,1.35061 1.500844,1.77793 0.595958,0.39776 1.301834,0.58556 2.118951,0.56432 1.517134,-0.0394 2.638961,-0.74574 3.370386,-2.12426 0.730129,-1.40687 1.068128,-3.6518 1.006301,-6.72996 -0.02557,-1.2732 -0.137589,-2.44072 -0.337171,-3.50305 -0.170548,-1.09252 -0.456909,-2.0195 -0.860015,-2.7811 -0.37333,-0.76217 -0.862829,-1.34385 -1.468501,-1.74458 -0.606291,-0.43028 -1.327704,-0.63515 -2.162785,-0.61363 -1.521377,0.0392 -2.665158,0.76901 -3.426326,2.18436 -0.732037,1.41563 -1.046277,3.64618 -0.95022,6.69609 z"
           style="fill:#ffffff;fill-opacity:1" />
        <path
           inkscape:connector-curvature="0"
           id="path4287"
           d="m 55.096718,928.32106 c 0.912515,-0.0121 1.825059,-0.0226 2.737625,-0.0316 l -0.04361,-4.39687 c 1.079713,-0.35108 2.160865,-0.69995 3.243464,-1.04659 l 0.03162,5.41829 c 1.615772,-0.009 3.231596,-0.0136 4.847439,-0.0129 l -0.001,2.88665 c -1.609861,-6.5e-4 -3.219735,0.004 -4.829591,0.013 l 0.07722,13.23485 c 0.0076,1.30258 0.15958,2.24951 0.45461,2.83988 0.324198,0.56084 0.835846,0.83942 1.535775,0.83701 0.583357,-0.002 1.078959,-0.0623 1.487231,-0.18134 0.437402,-0.1487 0.904109,-0.32666 1.400464,-0.53374 0.20389,0.84386 0.407097,1.68779 0.609618,2.5318 -0.640457,0.32496 -1.35272,0.57663 -2.137249,0.75563 -0.755427,0.20854 -1.554015,0.31467 -2.396719,0.31877 -1.452689,0.007 -2.502066,-0.45758 -3.15104,-1.3995 -0.619648,-0.97106 -0.942483,-2.53805 -0.963917,-4.69901 l -0.135676,-13.67915 c -0.909249,0.009 -1.818487,0.0195 -2.727706,0.0316 z"
           style="fill:#ffffff;fill-opacity:1" />
        <path
           inkscape:connector-curvature="0"
           id="path4289"
           d="m 79.640868,919.49773 c 0.485941,-0.08 1.016974,-0.12905 1.592868,-0.14696 0.606782,-0.0469 1.213112,-0.0634 1.818781,-0.0497 0.60633,-0.0159 1.197269,-0.0165 1.772688,-0.002 0.606403,-0.0144 1.167197,-0.0145 1.682039,-4.4e-4 2.211,0.0602 4.078473,0.49084 5.594981,1.28379 1.516918,0.79317 2.729844,1.90592 3.638154,3.33419 0.909669,1.39898 1.531072,3.06879 1.868011,5.00881 0.336981,1.94026 0.451534,4.09217 0.348853,6.45798 -0.09239,2.12872 -0.38837,4.16013 -0.882739,6.09401 -0.464977,1.93509 -1.195956,3.62281 -2.188303,5.06413 -0.992525,1.44157 -2.273859,2.57739 -3.843735,3.41171 -1.541314,0.83559 -3.452998,1.21847 -5.744636,1.15797 -0.37734,-0.01 -0.855181,-0.0371 -1.434972,-0.0808 -0.580315,-0.0142 -1.188931,-0.0579 -1.826156,-0.13106 -0.609194,-0.0429 -1.188446,-0.0844 -1.739817,-0.12478 -0.522084,-0.0398 -0.927575,-0.0915 -1.217006,-0.15594 l 0.560987,-31.12063 z m 6.964475,2.86803 c -0.300971,-0.008 -0.634116,-0.0172 -0.995418,-0.0267 -0.331808,-0.009 -0.664001,-0.002 -0.996521,0.019 -0.332497,0.0213 -0.649944,0.0433 -0.952206,0.0658 -0.27209,0.0232 -0.49902,0.0476 -0.680585,0.0731 l -0.569255,25.30159 c 0.115974,0.0322 0.319217,0.0663 0.609997,0.10269 0.320561,0.007 0.640763,0.0299 0.960548,0.0673 0.349644,0.009 0.669792,0.0315 0.960349,0.0686 0.312309,0.008 0.561681,0.0147 0.699181,0.0184 1.602152,0.0429 2.951797,-0.27095 4.054058,-0.94602 1.102016,-0.67492 1.981989,-1.5918 2.639364,-2.75275 0.68763,-1.18932 1.194987,-2.56253 1.519428,-4.11982 0.325563,-1.58685 0.523892,-3.2677 0.592241,-5.04203 0.06038,-1.56748 0.001,-3.10986 -0.180298,-4.62732 -0.181337,-1.51754 -0.564861,-2.86462 -1.153133,-4.0412 -0.557125,-1.20492 -1.365819,-2.18131 -2.42687,-2.92708 -1.029699,-0.77416 -2.391592,-1.18727 -4.080877,-1.23364 0,0 -3e-6,1.1e-4 -3e-6,1.1e-4 z"
           style="fill:#ffffff;fill-opacity:1" />
        <path
           inkscape:connector-curvature="0"
           id="path4291"
           d="m 101.30528,940.20298 c 0.19326,-3.99218 1.01335,-6.88317 2.48117,-8.67682 1.49722,-1.81933 3.54,-2.65971 6.11279,-2.50605 2.75247,0.16438 4.70928,1.26031 5.85783,3.26637 1.17992,2.01083 1.621,4.96188 1.34337,8.86001 -0.2858,4.01285 -1.1842,6.90393 -2.67305,8.66885 -1.49093,1.76738 -3.45701,2.57083 -5.91457,2.42416 -2.65984,-0.15873 -4.57431,-1.22137 -5.7554,-3.20835 -1.15047,-1.98283 -1.64095,-4.92783 -1.45214,-8.82817 z m 3.31109,0.16799 c -0.0691,1.3002 -0.0583,2.48646 0.0312,3.55801 0.11882,1.07317 0.33255,2.00353 0.64051,2.79082 0.33714,0.78896 0.78393,1.42125 1.34036,1.89734 0.55816,0.44659 1.24313,0.69356 2.05635,0.7421 1.50985,0.0901 2.68423,-0.51679 3.5293,-1.82642 0.84609,-1.33776 1.3757,-3.544 1.57945,-6.61385 0.0843,-1.26985 0.0735,-2.44188 -0.0337,-3.51676 -0.0757,-1.10244 -0.28097,-2.05 -0.61697,-2.84294 -0.30629,-0.79093 -0.74397,-1.41212 -1.31308,-1.86301 -0.56718,-0.48037 -1.26856,-0.74607 -2.10254,-0.79588 -1.51942,-0.0907 -2.72125,0.53898 -3.5992,1.88377 -0.84909,1.34771 -1.34995,3.54186 -1.51169,6.58682 z"
           style="fill:#ffffff;fill-opacity:1" />
        <path
           inkscape:connector-curvature="0"
           id="path4293"
           d="m 132.51414,952.45664 c -0.77572,0.49045 -1.63663,0.82523 -2.58391,1.00538 -0.94731,0.18017 -1.92475,0.22578 -2.93408,0.13727 -1.3842,-0.12138 -2.52962,-0.4848 -3.43949,-1.09422 -0.90726,-0.63878 -1.62603,-1.48287 -2.15627,-2.53388 -0.49885,-1.0781 -0.84069,-2.33652 -1.02386,-3.77513 -0.15172,-1.46578 -0.16271,-3.06974 -0.0304,-4.81057 0.28725,-3.77858 1.1681,-6.60304 2.66424,-8.47587 1.52413,-1.86831 3.56409,-2.69888 6.10316,-2.47657 1.16446,0.10196 2.15563,0.29571 2.97196,0.57887 0.81641,0.28318 1.50721,0.61581 2.07218,0.99666 -0.38645,0.89975 -0.77166,1.79982 -1.15566,2.70018 -1.12323,-0.78926 -2.38616,-1.24659 -3.78361,-1.36974 -1.60603,-0.14152 -2.88618,0.46433 -3.83338,1.81123 -0.91604,1.32121 -1.49092,3.48477 -1.73456,6.49466 -0.0979,1.20936 -0.10175,2.35234 -0.0128,3.42843 0.0889,1.07611 0.30463,2.02921 0.64603,2.85918 0.34386,0.80054 0.81482,1.46355 1.41268,1.98968 0.60045,0.49672 1.37765,0.78654 2.33333,0.87146 0.75299,0.0669 1.45971,-0.003 2.12141,-0.20924 0.69067,-0.20391 1.25572,-0.46294 1.69516,-0.77816 0.22385,0.88335 0.44648,1.76681 0.66788,2.65038 z"
           style="fill:#ffffff;fill-opacity:1" />
        <path
           inkscape:connector-curvature="0"
           id="path4295"
           d="m 135.86309,950.24344 c 0.54406,0.41191 1.19285,0.79049 1.94639,1.13681 0.78551,0.31989 1.59663,0.52498 2.43468,0.61555 0.95359,0.10306 1.78802,-0.0428 2.5057,-0.43911 0.72067,-0.42556 1.14408,-1.18193 1.26731,-2.27035 0.10325,-0.912 -0.0151,-1.68514 -0.35684,-2.31952 -0.34172,-0.63425 -0.80774,-1.22252 -1.39862,-1.76399 -0.56165,-0.53824 -1.18802,-1.03802 -1.87908,-1.49878 -0.68792,-0.49019 -1.32564,-1.04819 -1.91348,-1.67442 -0.55847,-0.62317 -1.00535,-1.33814 -1.34024,-2.14548 -0.33483,-0.80716 -0.44453,-1.80002 -0.32667,-2.97801 0.1886,-1.88516 0.83339,-3.24846 1.94239,-4.08773 1.14095,-0.86505 2.65447,-1.19948 4.53301,-0.99491 1.22232,0.13311 2.2677,0.36946 3.13438,0.70643 0.87012,0.30759 1.61003,0.6916 2.21927,1.15067 -0.38624,0.84898 -0.77134,1.69827 -1.1553,2.54785 -0.52855,-0.35945 -1.1537,-0.6698 -1.8752,-0.93017 -0.71817,-0.28979 -1.46364,-0.47709 -2.23539,-0.56166 -1.06859,-0.1171 -1.87938,0.02 -2.43033,0.40799 -0.52156,0.39138 -0.83086,1.05834 -0.92974,2.00048 -0.0772,0.73598 0.0633,1.39064 0.41985,1.96416 0.35977,0.54417 0.8248,1.07007 1.39463,1.57846 0.60252,0.48224 1.24592,0.98457 1.93038,1.50787 0.68438,0.52324 1.29853,1.12926 1.84215,1.81754 0.57631,0.66227 1.01832,1.44407 1.32652,2.34483 0.31171,0.87154 0.3915,1.93915 0.24201,3.20367 -0.0973,0.82328 -0.31996,1.58702 -0.66651,2.29143 -0.34656,0.70443 -0.82634,1.30386 -1.43851,1.79908 -0.57999,0.4692 -1.29086,0.81944 -2.13289,1.05212 -0.81332,0.23594 -1.75105,0.29532 -2.81544,0.17991 -1.26583,-0.13725 -2.34505,-0.38443 -3.23963,-0.74457 -0.89751,-0.33066 -1.64316,-0.73289 -2.23723,-1.20842 0.40946,-0.89627 0.82027,-1.79218 1.23243,-2.68773 z"
           style="fill:#ffffff;fill-opacity:1" />
      </g>
      <path
         inkscape:connector-curvature="0"
         id="path4392"
         d="m 72.447569,920.40377 a 21.814069,21.814069 0 0 0 -21.814063,21.81408 21.814069,21.814069 0 0 0 21.814063,21.81406 21.814069,21.814069 0 0 0 21.814078,-21.81406 21.814069,21.814069 0 0 0 -21.814078,-21.81408 z m 0,4.38369 a 17.430379,17.430379 0 0 1 17.430387,17.43039 17.430379,17.430379 0 0 1 -17.430387,17.43037 17.430379,17.430379 0 0 1 -17.430374,-17.43037 17.430379,17.430379 0 0 1 17.430374,-17.43039 z"
         style="opacity:1;fill:#414042;fill-opacity:1;stroke:none;stroke-width:2;stroke-linecap:round;stroke-linejoin:round;stroke-miterlimit:4;stroke-dasharray:none;stroke-dashoffset:0;stroke-opacity:1" />
      <circle
         style="opacity:1;fill:#ffffff;fill-opacity:0.37055838;stroke:none;stroke-width:2;stroke-linecap:round;stroke-linejoin:round;stroke-miterlimit:4;stroke-dasharray:none;stroke-dashoffset:0;stroke-opacity:1"
         id="circle4394"
         cx="72.447563"
         cy="942.21783"
         r="17.43038" />
      <path
         style="opacity:1;fill:#414042;fill-opacity:1;stroke:none;stroke-width:2;stroke-linecap:round;stroke-linejoin:round;stroke-miterlimit:4;stroke-dasharray:none;stroke-dashoffset:0;stroke-opacity:1"
         d="m 127.25907,920.40377 a 21.814069,21.814069 0 0 0 -21.81407,21.81408 21.814069,21.814069 0 0 0 21.81407,21.81406 21.814069,21.814069 0 0 0 21.81406,-21.81406 21.814069,21.814069 0 0 0 -21.81406,-21.81408 z m 0,4.38369 a 17.430379,17.430379 0 0 1 17.43037,17.43039 17.430379,17.430379 0 0 1 -17.43037,17.43037 17.430379,17.430379 0 0 1 -17.43038,-17.43037 17.430379,17.430379 0 0 1 17.43038,-17.43039 z"
         id="path4403"
         inkscape:connector-curvature="0" />
      <circle
         r="17.43038"
         cy="942.21783"
         cx="127.25906"
         id="circle4405"
         style="opacity:1;fill:#ffffff;fill-opacity:0.37055838;stroke:none;stroke-width:2;stroke-linecap:round;stroke-linejoin:round;stroke-miterlimit:4;stroke-dasharray:none;stroke-dashoffset:0;stroke-opacity:1" />
      <path
         sodipodi:nodetypes="cc"
         inkscape:connector-curvature="0"
         id="path4407"
         d="m 91.141992,938.31527 c 5.441713,-7.1101 11.993948,-7.35897 17.366008,0.40701"
         style="fill:none;fill-rule:evenodd;stroke:#414042;stroke-width:4.60486126;stroke-linecap:butt;stroke-linejoin:miter;stroke-miterlimit:4;stroke-dasharray:none;stroke-opacity:1" />
    </g>
  </g>
</svg>
