<?xml version="1.0" encoding="UTF-8" standalone="no"?>
<!-- Created with Inkscape (http://www.inkscape.org/) -->

<svg
   width="161.71184mm"
   height="166.9613mm"
   viewBox="0 0 161.71184 166.9613"
   version="1.1"
   id="svg5"
   xml:space="preserve"
   xmlns:inkscape="http://www.inkscape.org/namespaces/inkscape"
   xmlns:sodipodi="http://sodipodi.sourceforge.net/DTD/sodipodi-0.dtd"
   xmlns="http://www.w3.org/2000/svg"
   xmlns:svg="http://www.w3.org/2000/svg"><sodipodi:namedview
     id="namedview7"
     pagecolor="#505050"
     bordercolor="#ffffff"
     borderopacity="1"
     inkscape:showpageshadow="0"
     inkscape:pageopacity="0"
     inkscape:pagecheckerboard="1"
     inkscape:deskcolor="#505050"
     inkscape:document-units="mm"
     showgrid="false" /><defs
     id="defs2" /><g
     inkscape:label="Layer 1"
     inkscape:groupmode="layer"
     id="layer1"
     transform="translate(-18.045193,-40.283809)"><path
       style="fill:#fe3f02;stroke:none;stroke-width:0.0969364"
       d="m 77.287066,40.474544 c -0.594317,0.401511 -0.806511,2.142392 -1.013567,2.808442 -0.774231,2.491654 -1.631828,4.959946 -2.365055,7.464104 -0.23478,0.801567 -0.453856,2.394136 -1.223337,2.828217 -2.921855,1.648113 -6.316765,2.751928 -9.398565,4.081508 -1.07454,0.46355 -2.69619,1.577737 -3.87746,1.540707 -1.05215,-0.03296 -2.17108,-0.45657 -3.1989,-0.675065 -2.38415,-0.507075 -4.76889,-1.03121 -7.1733,-1.434368 -0.95143,-0.159558 -2.85458,-0.836852 -3.76365,-0.466264 -0.57018,0.232453 -0.98255,1.196195 -1.30932,1.686305 -1.0092,1.513759 -1.99737,3.041768 -3.00503,4.556012 -3.88337,5.835669 -7.78535,11.688302 -11.48454,17.642427 -1.01056,1.62669 -2.05515,3.235932 -3.09072,4.846821 -0.35779,0.556609 -1.17468,1.434562 -1.12117,2.132601 0.0662,0.863801 0.9018,1.903928 1.3512,2.617284 0.61361,0.97392 1.28809,2.606232 2.19542,3.31348 1.13376,0.883769 3.26365,1.21694 4.62105,1.69726 8.61842,3.050203 17.24557,6.080145 25.88202,9.078385 9.05755,3.14443 18.108987,6.31851 27.142201,9.53351 2.935331,1.04468 5.868238,2.10556 8.821218,3.09954 1.0977,0.36951 2.42408,1.15829 3.58664,1.21073 0.5128,0.0231 1.07309,-0.30778 1.550989,-0.46762 1.20201,-0.402 2.38948,-0.84353 3.58664,-1.2591 4.17312,-1.44881 8.32296,-2.97052 12.5048,-4.3952 11.99491,-4.08674 23.87156,-8.51499 35.86647,-12.601732 4.01511,-1.36816 8.0467,-2.738845 12.02012,-4.224395 1.34838,-0.50407 3.47711,-0.77142 4.60157,-1.673801 0.37999,-0.304768 0.5981,-0.873107 0.85983,-1.275393 0.68825,-1.054086 1.37843,-2.105556 2.0027,-3.198901 0.25979,-0.455408 0.728,-1.096642 0.63591,-1.647919 -0.13765,-0.825802 -0.95774,-1.722173 -1.39298,-2.423411 -1.21461,-1.956468 -2.48448,-3.880171 -3.73205,-5.816185 -3.38017,-5.248428 -6.74968,-10.508877 -10.21322,-15.703699 -1.00911,-1.513759 -1.99495,-3.041962 -3.00503,-4.556011 -0.43331,-0.650056 -0.85498,-1.572503 -1.4618,-2.074149 -0.45367,-0.375047 -1.62175,0.0097 -2.15684,0.09558 -1.94551,0.31262 -3.89103,0.640459 -5.81618,1.065041 -1.41915,0.31291 -2.84896,0.576578 -4.26521,0.901993 -0.66401,0.152772 -1.54807,0.51134 -2.22953,0.428071 -0.70764,-0.08647 -1.48022,-0.581037 -2.1326,-0.860407 -1.55196,-0.663918 -3.1136,-1.317463 -4.65295,-2.009201 -1.54032,-0.69232 -3.08743,-1.391717 -4.65295,-2.025487 -0.58743,-0.237882 -1.67894,-0.513666 -2.04245,-1.059709 -0.53509,-0.805832 -0.70279,-2.074051 -0.99554,-2.992136 -0.69212,-2.163815 -1.35129,-4.338971 -2.06765,-6.49474 -0.25591,-0.770257 -0.5031,-1.549238 -0.73769,-2.326474 -0.0892,-0.29585 -0.13474,-0.754359 -0.40616,-0.947069 -0.54963,-0.389005 -2.02209,-0.119231 -2.66866,-0.119231 h -7.07636 -24.52491 -6.49474 c -0.616806,0 -1.95734,-0.252617 -2.478664,0.09965 M 33.914802,102.4142 c -0.30021,0.88678 -0.29459,1.88658 -0.41508,2.81116 -0.24389,1.87223 -0.44804,3.74892 -0.67884,5.62231 -0.33036,2.68146 -0.63911,5.36485 -0.96937,8.04572 -0.17177,1.39481 -0.58055,2.95801 -0.49496,4.36214 0.0647,1.06048 0.48081,2.16459 0.7154,3.1989 0.49844,2.19755 0.97837,4.40382 1.51579,6.59167 0.49757,2.02694 0.97276,4.06746 1.41372,6.107 0.1487,0.68825 0.21976,2.03372 0.71287,2.55524 0.35489,0.37611 1.03606,0.54575 1.49631,0.76192 1.25106,0.58647 2.52946,1.11574 3.78052,1.70221 4.46383,2.09285 8.9704,4.10913 13.47416,6.11474 3.24107,1.44339 6.4676,2.92845 9.69364,4.40576 1.01221,0.46336 2.75823,1.71384 3.87746,1.64405 0.77481,-0.0485 1.69784,-0.58356 2.423412,-0.85789 1.614379,-0.60876 3.228565,-1.21849 4.846821,-1.81659 5.69327,-2.10449 11.362208,-4.28071 17.060806,-6.37163 1.49011,-0.54672 2.97004,-1.12349 4.45908,-1.67409 0.61651,-0.2278 1.3765,-0.66014 2.03566,-0.69504 0.78034,-0.0407 1.799139,0.56708 2.520349,0.84141 1.74098,0.66208 3.48777,1.30574 5.23457,1.95133 5.33828,1.97363 10.65137,4.02383 15.9945,5.98389 1.58685,0.58258 3.16789,1.18456 4.74989,1.78072 0.72702,0.27433 1.55389,0.73575 2.32647,0.83656 0.72896,0.096 1.67409,-0.59519 2.32648,-0.87727 2.08413,-0.90151 4.12949,-1.90093 6.20393,-2.82473 4.70238,-2.09383 9.35436,-4.30204 14.05578,-6.39781 3.17079,-1.41333 6.54611,-2.67835 9.58604,-4.35244 0.60876,-0.3354 0.6708,-1.59751 0.80651,-2.22566 0.44106,-2.04148 0.92865,-4.07715 1.42109,-6.10699 0.56223,-2.31775 1.08763,-4.65101 1.6043,-6.97943 0.24331,-1.09441 0.69309,-2.27025 0.7309,-3.39277 0.0514,-1.54478 -0.36158,-3.21587 -0.5506,-4.74989 -0.33346,-2.71294 -0.65626,-5.42804 -0.981,-8.14265 l -0.67855,-5.62231 c -0.0562,-0.46646 0.0223,-1.74893 -0.36448,-2.06155 -0.25495,-0.20589 -0.7532,0.10605 -1.00814,0.19863 -0.93253,0.33927 -1.87185,0.67021 -2.81116,0.9902 -4.01607,1.36836 -8.02246,2.77578 -12.02011,4.19841 -11.08953,3.94677 -22.28666,7.62096 -33.44307,11.37636 -3.62445,1.22014 -7.22855,2.50532 -10.85688,3.71586 -1.49379,0.49826 -3.09711,1.33482 -4.652939,1.58104 -0.52831,0.0834 -1.15849,-0.2753 -1.64792,-0.44785 -1.12766,-0.39744 -2.26628,-0.76192 -3.39278,-1.16324 -4.14665,-1.47556 -8.329065,-2.87552 -12.504795,-4.26743 -10.389161,-3.46304 -20.799354,-6.92891 -31.116594,-10.60086 -3.6102,-1.2849 -7.24667,-2.49563 -10.85687,-3.78052 -1.84354,-0.65617 -3.71868,-1.51754 -5.62232,-1.96859 m 45.657055,26.85138 c -0.272876,2.11322 -1.019189,4.18669 -2.113214,6.01006 -1.072213,1.78751 -2.506387,3.4267 -4.187653,4.66458 -7.871428,5.79486 -19.637958,3.63124 -24.398028,-5.14926 -1.02762,-1.89511 -1.68417,-3.96664 -1.94105,-6.107 -0.46646,-3.88811 0.68621,-7.11193 2.29885,-10.56606 3.76481,0.87097 7.52498,2.71586 11.14768,4.06648 6.38831,2.38173 12.832448,4.62774 19.193415,7.0812 m 68.815163,-11.05249 c 0.77064,0.14482 1.36002,2.26152 1.59072,2.90983 1.15646,3.24834 1.38232,6.95713 0.35479,10.27526 -2.52035,8.14557 -10.77157,13.25218 -19.1905,11.53544 -4.98544,-1.01687 -9.48232,-4.43872 -11.57518,-9.11203 -0.48177,-1.07502 -0.8511,-2.14617 -1.11186,-3.29583 -0.0708,-0.3102 -0.29275,-0.90442 -0.10178,-1.19717 0.28111,-0.43137 1.27956,-0.58646 1.73807,-0.75998 1.6421,-0.62233 3.31232,-1.17487 4.94375,-1.82337 5.64849,-2.24505 11.42105,-4.32385 17.15775,-6.33412 1.49476,-0.52394 2.96722,-1.11176 4.45908,-1.64453 0.45269,-0.16159 1.25338,-0.64385 1.73516,-0.5535 m -122.711808,12.4096 c -1.82502,1.82532 -3.6988,3.60216 -5.52538,5.42844 -0.58278,0.58259 -1.82773,1.42497 -2.06532,2.22954 -0.2026,0.68631 0.43427,1.94454 0.62485,2.61728 l 1.93873,6.78555 c 2.13492,7.53196 4.2936,15.05714 6.44035,22.58619 l 1.7721,6.20393 c 0.1993,0.70376 0.30952,2.02888 0.83879,2.55427 0.68941,0.68534 2.25125,1.02171 3.14917,1.38135 2.39666,0.95967 4.79826,1.92031 7.1733,2.93232 5.13995,2.18883 10.35824,4.19444 15.50982,6.35612 3.58093,1.50349 7.17776,3.1737 10.85688,4.41836 l -1.45026,-22.78005 -0.38775,-6.30087 -0.215,-2.56881 -2.40606,-1.23691 -6.59168,-3.05544 -17.64243,-8.23087 -5.42844,-2.52035 -2.49824,-1.19231 -0.49447,-1.16421 -0.67856,-2.81116 -1.96335,-8.04572 -0.95705,-3.58665 m 146.373988,0 -2.67351,10.95382 -0.7532,3.10196 -0.50019,1.48895 -2.47091,1.20395 -5.71925,2.66866 -17.64242,8.22311 -6.49474,3.01472 -2.32357,1.18069 -0.2055,2.47963 -0.38775,6.30087 -0.96936,15.50983 -0.47596,7.36716 c 3.74174,-1.26598 7.40788,-2.98564 11.05075,-4.51529 5.1512,-2.16169 10.37026,-4.1673 15.50983,-6.35612 2.37785,-1.01299 4.78962,-1.9494 7.17329,-2.94978 0.81717,-0.34218 2.32066,-0.62912 2.93427,-1.2718 0.51861,-0.54188 0.60779,-1.84374 0.81911,-2.54943 0.65529,-2.18592 1.28731,-4.38831 1.88347,-6.59168 2.00271,-7.39334 4.21092,-14.7324 6.2999,-22.1015 l 1.93873,-6.78555 c 0.19775,-0.696 0.86176,-2.00465 0.68534,-2.71422 -0.19484,-0.78422 -1.49476,-1.58006 -2.05602,-2.13357 -1.81077,-1.7846 -3.54594,-4.06164 -5.62231,-5.52441 m -73.186999,21.02163 -1.93873,0.71055 -4.45907,1.76521 -14.34659,5.66206 -4.846821,1.91837 -1.839077,0.85498 -0.01919,1.21946 0.109635,2.22953 0.487009,9.98446 0.676228,13.8619 0.197654,4.2652 0.155389,2.49903 1.49253,0.79584 4.459075,1.80399 14.346588,5.85496 3.87745,1.57037 1.74486,0.60488 2.035659,-0.77743 4.07133,-1.64792 13.37723,-5.44976 4.55601,-1.86118 1.71384,-0.81621 0.15606,-1.89801 0.26658,-5.71925 0.96549,-18.9026 0.22198,-5.13763 0.062,-2.47188 -1.73807,-0.80457 -4.74989,-1.8796 -14.83127,-5.87531 -4.2652,-1.6867 z"
       id="path856"
       inkscape:export-filename="REDOT.svg"
       inkscape:export-xdpi="96"
       inkscape:export-ydpi="96" /></g></svg>
